<svg width="28" height="31" viewBox="0 0 28 31" fill="none" xmlns="http://www.w3.org/2000/svg">
<g filter="url(#filter0_d_1_55)">
<path d="M20 18.5C20.5304 18.5 21.0391 18.7107 21.4142 19.0858C21.7893 19.4609 22 19.9696 22 20.5C22 21.0304 21.7893 21.5391 21.4142 21.9142C21.0391 22.2893 20.5304 22.5 20 22.5C19.4696 22.5 18.9609 22.2893 18.5858 21.9142C18.2107 21.5391 18 21.0304 18 20.5C18 19.39 18.89 18.5 20 18.5ZM4 2.5H7.27L8.21 4.5H23C23.2652 4.5 23.5196 4.60536 23.7071 4.79289C23.8946 4.98043 24 5.23478 24 5.5C24 5.67 23.95 5.84 23.88 6L20.3 12.47C19.96 13.08 19.3 13.5 18.55 13.5H11.1L10.2 15.13L10.17 15.25C10.17 15.3163 10.1963 15.3799 10.2432 15.4268C10.2901 15.4737 10.3537 15.5 10.42 15.5H22V17.5H10C9.46957 17.5 8.96086 17.2893 8.58579 16.9142C8.21071 16.5391 8 16.0304 8 15.5C8 15.15 8.09 14.82 8.24 14.54L9.6 12.09L6 4.5H4V2.5ZM10 18.5C10.5304 18.5 11.0391 18.7107 11.4142 19.0858C11.7893 19.4609 12 19.9696 12 20.5C12 21.0304 11.7893 21.5391 11.4142 21.9142C11.0391 22.2893 10.5304 22.5 10 22.5C9.46957 22.5 8.96086 22.2893 8.58579 21.9142C8.21071 21.5391 8 21.0304 8 20.5C8 19.39 8.89 18.5 10 18.5ZM19 11.5L21.78 6.5H9.14L11.5 11.5H19Z" fill="#191411"/>
</g>
<defs>
<filter id="filter0_d_1_55" x="-1" y="0.5" width="32" height="32" filterUnits="userSpaceOnUse" color-interpolation-filters="sRGB">
<feFlood flood-opacity="0" result="BackgroundImageFix"/>
<feColorMatrix in="SourceAlpha" type="matrix" values="0 0 0 0 0 0 0 0 0 0 0 0 0 0 0 0 0 0 127 0" result="hardAlpha"/>
<feOffset dy="4"/>
<feGaussianBlur stdDeviation="2"/>
<feComposite in2="hardAlpha" operator="out"/>
<feColorMatrix type="matrix" values="0 0 0 0 0 0 0 0 0 0 0 0 0 0 0 0 0 0 0.25 0"/>
<feBlend mode="normal" in2="BackgroundImageFix" result="effect1_dropShadow_1_55"/>
<feBlend mode="normal" in="SourceGraphic" in2="effect1_dropShadow_1_55" result="shape"/>
</filter>
</defs>
</svg>
